<svg xmlns="http://www.w3.org/2000/svg" width="200" height="150" fill="none" viewBox="0 0 200 150"><g clip-path="url(#clip0)"><rect width="196" height="77" x="2" y="2" fill="#CBCBCB"/><path fill="#1D1D1B" d="M189.651 149.975H0.349854V74.9751H199.649V139.975C199.649 142.627 198.596 145.171 196.721 147.046C194.846 148.922 192.303 149.975 189.651 149.975"/><path fill="#1D1D1B" d="M51.7098 51.042C55.0441 55.849 60.5829 55.23 60.5829 55.23H62.7274L48.8544 34.124L44.6423 40.424C48.0206 45.471 51.0719 50.044 51.7138 51.043"/><path fill="#1D1D1B" d="M39.3426 19.6533H28.4069L15.8906 55.2303H23.1511L34.2487 24.9083C34.2487 24.9083 37.0481 29.0833 40.4194 34.1083L44.6304 27.7003L39.3426 19.6533Z"/><path fill="#1D1D1B" d="M66.1117 55.2303H73.3722L60.8449 19.6533H49.9202L44.6304 27.7003L48.8455 34.1093C52.2117 29.0843 55.0121 24.9093 55.0121 24.9093L66.1117 55.2303Z"/><path fill="#1D1D1B" d="M40.4122 34.1104L26.5242 55.2304H28.6687C28.6687 55.2304 34.2105 55.8494 37.5448 51.0424C38.1897 50.0424 41.244 45.4704 44.6193 40.4224L40.4062 34.1224L40.4122 34.1104Z"/><path fill="#1D1D1B" d="M44.6194 40.4223L44.6314 40.4403L44.6424 40.4233L44.6304 40.4053C44.6271 40.4112 44.6234 40.4168 44.6194 40.4223"/><path fill="#1D1D1B" d="M48.8547 34.1247L48.8455 34.1113L48.8547 34.1247Z"/><path fill="#1D1D1B" fill-rule="evenodd" d="M96.0792 39.7789C95.6793 39.7789 95.3494 39.7859 95.1074 39.8049C94.9086 39.8019 94.7104 39.8289 94.5196 39.8849C94.3998 39.9114 94.2934 39.9798 94.2196 40.0779C94.1484 40.1761 94.0927 40.2847 94.0547 40.3999L89.3017 54.0829C89.223 54.299 89.1644 54.522 89.1267 54.7489C89.1099 54.8174 89.1083 54.8887 89.1221 54.9578C89.1359 55.027 89.1648 55.0922 89.2067 55.1489C89.3268 55.251 89.4772 55.3107 89.6346 55.3189C89.8406 55.3369 90.1345 55.3499 90.4954 55.3499C90.8384 55.3499 91.1093 55.3449 91.3182 55.3239C91.4834 55.3196 91.6473 55.2927 91.8051 55.2439C91.9049 55.2087 91.9926 55.146 92.0581 55.0629C92.1178 54.9754 92.1631 54.8788 92.1921 54.7769L93.1639 51.7659H98.9626L100.001 54.8659C100.02 54.9576 100.059 55.0436 100.117 55.1169C100.184 55.1908 100.271 55.2436 100.367 55.2689C100.535 55.3126 100.707 55.3324 100.88 55.3279C101.112 55.3489 101.424 55.3539 101.834 55.3539C102.226 55.3539 102.534 55.3409 102.755 55.3229C102.976 55.3049 103.128 55.2579 103.213 55.1759C103.259 55.1264 103.293 55.0659 103.31 55.0001C103.328 54.9343 103.329 54.8651 103.313 54.7989C103.272 54.567 103.209 54.3394 103.127 54.1189L98.3557 40.4309C98.3198 40.3032 98.2601 40.1835 98.1798 40.0779C98.0938 39.9758 97.9744 39.9074 97.8428 39.8849C97.6343 39.8286 97.419 39.8017 97.203 39.8049C96.925 39.7859 96.5481 39.7789 96.0792 39.7789ZM93.8487 49.3499L96.0432 42.7999L98.2238 49.3519L93.8487 49.3499ZM118.327 39.8049C118.094 39.8022 117.86 39.8142 117.628 39.8409C117.476 39.8458 117.327 39.8798 117.189 39.9409C117.093 39.9664 117.009 40.0248 116.952 40.1059C116.903 40.1634 116.876 40.2365 116.877 40.3119V47.5539C116.877 48.1039 116.877 48.6759 116.89 49.2869C116.903 49.8979 116.926 50.4699 116.937 51.0199C116.79 50.7049 116.645 50.3879 116.498 50.0709L116.026 49.0999C115.871 48.7649 115.699 48.4349 115.526 48.1099L115.018 47.0909L112.013 41.4549C111.885 41.1889 111.739 40.9323 111.575 40.6869C111.449 40.4923 111.29 40.3213 111.105 40.1819C110.943 40.0594 110.755 39.9756 110.556 39.9369C110.308 39.8722 110.052 39.8426 109.796 39.8489H108.118C107.821 39.8422 107.532 39.9419 107.303 40.1299C107.092 40.3179 106.981 40.5939 106.981 40.9729V54.8339C106.979 54.9101 107 54.9852 107.04 55.0499C107.096 55.1247 107.171 55.1833 107.257 55.2199C107.396 55.2662 107.539 55.2996 107.684 55.3199C107.87 55.3379 108.097 55.3509 108.376 55.3509C108.655 55.3509 108.893 55.3379 109.075 55.3199C109.222 55.2994 109.367 55.266 109.508 55.2199C109.596 55.1844 109.672 55.1256 109.729 55.0499C109.776 54.9875 109.8 54.9116 109.799 54.8339V46.7659C109.799 46.1659 109.799 45.5749 109.776 45.0099C109.753 44.4449 109.74 43.8709 109.729 43.2959C109.91 43.7649 110.116 44.2469 110.348 44.7519C110.58 45.2569 110.807 45.7089 111.034 46.1339L114.859 53.3459C115.066 53.7459 115.243 54.0679 115.398 54.3259C115.539 54.5439 115.707 54.7432 115.898 54.9189C116.061 55.0563 116.25 55.1584 116.455 55.2189C116.695 55.2748 116.94 55.3027 117.187 55.3019H118.519C118.668 55.3018 118.816 55.2809 118.958 55.2399C119.101 55.1995 119.233 55.1262 119.342 55.0259C119.455 54.9266 119.544 54.8032 119.602 54.6649C119.672 54.514 119.706 54.3491 119.702 54.1829V40.3099C119.701 40.2378 119.683 40.1671 119.648 40.1039C119.593 40.0295 119.518 39.9723 119.431 39.9389C119.302 39.8777 119.161 39.8437 119.018 39.8389C118.791 39.8128 118.562 39.8008 118.332 39.8029L118.327 39.8049ZM129.721 39.8489H125.845C125.602 39.8438 125.365 39.9281 125.18 40.0859C125.009 40.2379 124.914 40.4859 124.914 40.8359V54.2899C124.914 54.6379 125.009 54.8899 125.18 55.0499C125.366 55.2047 125.603 55.2855 125.845 55.2769H129.944C130.506 55.2804 131.068 55.2443 131.626 55.1689C132.111 55.0957 132.588 54.9754 133.05 54.8099C133.481 54.6613 133.891 54.458 134.27 54.2049C134.634 53.9669 134.955 53.6694 135.221 53.3249C135.501 52.973 135.714 52.5727 135.85 52.1439C136.011 51.6639 136.089 51.1601 136.083 50.6539C136.088 50.1678 136.006 49.6847 135.84 49.2279C135.694 48.8247 135.472 48.4535 135.185 48.1349C134.915 47.8173 134.587 47.5548 134.218 47.3619C133.843 47.1585 133.438 47.0163 133.018 46.9409C133.347 46.8268 133.654 46.6577 133.926 46.4409C134.191 46.2434 134.42 46.0027 134.604 45.7289C134.789 45.4559 134.931 45.1556 135.024 44.8389C135.124 44.4933 135.173 44.1348 135.169 43.7749C135.181 43.1753 135.06 42.5805 134.813 42.0339C134.573 41.5479 134.216 41.129 133.774 40.8149C133.33 40.4869 132.774 40.2529 132.118 40.0899C131.33 39.919 130.525 39.8395 129.719 39.8529L129.721 39.8489ZM127.993 46.1999V42.1999H129.579C129.968 42.1874 130.357 42.2308 130.734 42.3289C131.002 42.4028 131.251 42.5346 131.464 42.7149C131.655 42.8753 131.802 43.0818 131.892 43.3149C131.987 43.5839 132.034 43.8676 132.03 44.1529C132.033 44.425 131.99 44.6955 131.902 44.9529C131.817 45.1977 131.681 45.4212 131.502 45.6079C131.313 45.8008 131.085 45.9506 130.834 46.0469C130.485 46.1625 130.118 46.2146 129.751 46.2009L127.993 46.1999ZM127.993 52.8779V48.4929H129.852C130.324 48.4823 130.794 48.5355 131.252 48.6509C131.573 48.7337 131.874 48.8822 132.135 49.0869C132.362 49.2813 132.538 49.5267 132.651 49.8029C132.78 50.1052 132.841 50.4317 132.831 50.7599C132.84 51.075 132.777 51.3881 132.646 51.6749C132.53 51.9347 132.355 52.1642 132.135 52.3459C131.903 52.5258 131.639 52.6614 131.358 52.7459C131.001 52.8427 130.633 52.8868 130.264 52.8769L127.993 52.8779ZM141.784 39.7779C141.534 39.7753 141.283 39.788 141.035 39.8159C140.869 39.8337 140.705 39.8642 140.545 39.9069C140.447 39.9358 140.357 39.9887 140.285 40.0609C140.238 40.1236 140.212 40.1996 140.212 40.2779V54.8479C140.212 54.9243 140.238 54.9985 140.285 55.0589C140.355 55.1355 140.445 55.1909 140.545 55.2189C140.7 55.2644 140.858 55.2978 141.019 55.3189C141.226 55.3369 141.48 55.3499 141.784 55.3499C142.088 55.3499 142.346 55.3369 142.545 55.3189C142.707 55.2989 142.866 55.2654 143.022 55.2189C143.12 55.1946 143.207 55.1383 143.269 55.0589C143.297 55.0311 143.318 54.9982 143.333 54.962C143.347 54.9257 143.355 54.887 143.354 54.8479V40.2789C143.355 40.1983 143.325 40.1204 143.269 40.0619C143.204 39.9868 143.118 39.9331 143.022 39.9079C142.866 39.8648 142.706 39.8343 142.545 39.8169C142.293 39.7889 142.039 39.7762 141.784 39.7789V39.7779ZM165.239 39.8509H163.14C162.876 39.8482 162.613 39.8818 162.359 39.9509C162.145 40.0041 161.946 40.1069 161.779 40.2509C161.603 40.4092 161.458 40.5992 161.351 40.8109C161.211 41.081 161.101 41.3653 161.021 41.6589L157.51 50.8199L154.172 41.6309C154.094 41.3421 153.983 41.0634 153.84 40.8009C153.726 40.583 153.562 40.3947 153.363 40.2509C153.163 40.1022 152.932 39.9998 152.687 39.9509C152.378 39.8807 152.063 39.8472 151.746 39.8509H149.689C149.533 39.8436 149.377 39.8685 149.23 39.9239C149.084 39.9792 148.951 40.064 148.839 40.1729C148.622 40.3899 148.511 40.6989 148.511 41.1009V54.8489C148.512 54.9226 148.53 54.995 148.565 55.0599C148.631 55.1336 148.714 55.1887 148.808 55.2199C148.96 55.2651 149.115 55.2985 149.272 55.3199C149.462 55.3379 149.705 55.3509 149.986 55.3509C150.286 55.3509 150.52 55.3379 150.702 55.3199C150.859 55.299 151.013 55.2655 151.163 55.2199C151.261 55.1972 151.346 55.1404 151.405 55.0599C151.453 54.9997 151.479 54.9256 151.48 54.8489L151.506 42.2899L155.816 54.8339C155.84 54.9219 155.889 55.0008 155.958 55.0599C156.042 55.1339 156.139 55.1909 156.244 55.2279C156.4 55.2764 156.561 55.306 156.724 55.3159C156.909 55.3339 157.136 55.3469 157.412 55.3469C157.643 55.3503 157.873 55.3416 158.103 55.3209C158.259 55.323 158.415 55.301 158.565 55.2559C158.674 55.2221 158.776 55.1681 158.865 55.0969C158.936 55.0228 158.989 54.9326 159.019 54.8339L163.518 42.2899V54.8489C163.517 54.9246 163.54 54.9987 163.585 55.0599C163.647 55.1364 163.73 55.1922 163.825 55.2199C163.971 55.2663 164.121 55.2997 164.273 55.3199C164.464 55.3379 164.706 55.3509 164.989 55.3509C165.272 55.3509 165.528 55.3379 165.719 55.3199C165.872 55.2997 166.022 55.2663 166.168 55.2199C166.264 55.1958 166.348 55.1393 166.407 55.0599C166.459 55.0023 166.487 54.9267 166.485 54.8489V41.0999C166.485 40.9229 166.455 40.7471 166.397 40.5799C166.356 40.4293 166.277 40.2917 166.168 40.1799C166.069 40.0621 165.936 39.9768 165.788 39.9349C165.612 39.8711 165.426 39.8412 165.239 39.8469V39.8509ZM177.056 39.7749C176.649 39.7749 176.327 39.7819 176.074 39.8009C175.879 39.7989 175.684 39.8259 175.497 39.8809C175.377 39.9062 175.27 39.9749 175.197 40.0739C175.123 40.1707 175.066 40.2797 175.029 40.3959L170.271 54.0789C170.192 54.295 170.133 54.518 170.095 54.7449C170.08 54.8135 170.079 54.8846 170.093 54.9535C170.107 55.0225 170.135 55.0877 170.176 55.1449C170.299 55.2467 170.45 55.3063 170.609 55.3149C170.815 55.3329 171.098 55.3459 171.47 55.3459C171.802 55.3459 172.083 55.3409 172.287 55.3199C172.452 55.3166 172.616 55.2896 172.774 55.2399C172.874 55.2075 172.96 55.1441 173.022 55.0589C173.083 54.972 173.13 54.8753 173.159 54.7729L174.127 51.7619H179.926L180.96 54.8619C180.988 54.951 181.029 55.0355 181.081 55.1129C181.146 55.1861 181.231 55.2389 181.326 55.2649C181.496 55.3086 181.671 55.3284 181.847 55.3239C182.074 55.3449 182.396 55.3499 182.799 55.3499C183.201 55.3499 183.491 55.3369 183.713 55.3189C183.935 55.3009 184.097 55.2539 184.177 55.1719C184.224 55.1225 184.258 55.062 184.275 54.9962C184.293 54.9303 184.293 54.8611 184.277 54.7949C184.24 54.5638 184.183 54.3363 184.107 54.1149L179.333 40.4339C179.297 40.3056 179.236 40.1857 179.153 40.0809C179.071 39.9787 178.955 39.91 178.825 39.8879C178.613 39.8317 178.395 39.8047 178.176 39.8079C177.898 39.7889 177.527 39.7819 177.057 39.7819L177.056 39.7749ZM174.827 49.3529L177.027 42.8009L179.205 49.3529H174.827Z" clip-rule="evenodd"/><path fill="#1D1D1B" d="M97.425 30.3751H95.9803L95.1285 27.6371H91.3863L90.5505 30.3751H89.1018L92.3561 19.9541H94.1557L97.425 30.3751ZM91.6603 26.5751H94.8536L93.2539 21.5261H93.2389L91.6603 26.5751Z"/><path fill="#1D1D1B" d="M104.498 22.769V30.3751H103.357L103.281 29.4481H103.25C102.627 30.2231 101.805 30.527 100.85 30.527C99.3145 30.527 98.4927 29.584 98.4927 28.215V22.769H99.7104V28.14C99.7104 29.04 100.425 29.54 101.322 29.54C102.204 29.54 103.284 28.917 103.284 27.761V22.771L104.498 22.769Z"/><path fill="#1D1D1B" d="M106.818 28.7481V23.7431H105.569V23.0001L106.818 22.7721L107.318 20.6421H108.033V22.7721H110.132V23.7461H108.033V28.6751C108.033 29.2981 108.291 29.4651 108.869 29.4651H110.132V30.2561C109.523 30.4391 109.173 30.5301 108.641 30.5301C107.181 30.5301 106.817 29.7091 106.817 28.7511"/><path fill="#1D1D1B" d="M111.08 26.5707C111.08 24.2287 111.961 22.6157 114.379 22.6157C116.798 22.6157 117.695 24.2287 117.695 26.5707C117.695 28.9297 116.813 30.5267 114.38 30.5267C111.948 30.5267 111.081 28.9267 111.081 26.5707H111.08ZM112.358 26.5707C112.358 28.2297 112.813 29.4917 114.381 29.4917C115.949 29.4917 116.419 28.2297 116.419 26.5707C116.419 24.9117 115.963 23.6507 114.381 23.6507C112.799 23.6507 112.358 24.9137 112.358 26.5707Z"/><path fill="#1D1D1B" d="M119.372 30.3747V22.7687H120.513L120.589 24.0457H120.619C121.119 23.0457 122.141 22.6157 123.098 22.6157V23.8477H122.798C121.429 23.8477 120.592 24.7477 120.592 25.8117V30.3747H119.372Z"/><path fill="#1D1D1B" d="M124.394 30.3747V22.7687H125.536L125.612 24.0457H125.641C126.141 23.0457 127.163 22.6157 128.12 22.6157V23.8477H127.821C126.452 23.8477 125.621 24.7477 125.621 25.8117V30.3747H124.394Z"/><path fill="#1D1D1B" d="M130.405 26.9367C130.434 28.3667 130.937 29.4627 132.413 29.4627H134.921V30.2527C134.097 30.4305 133.256 30.5223 132.413 30.5267C129.993 30.5267 129.113 28.9267 129.113 26.5707C129.113 24.2287 130.148 22.6157 132.596 22.6157C134.495 22.6157 135.425 23.7427 135.425 24.8677C135.425 25.8877 134.969 26.9367 133.204 26.9367H130.405ZM130.419 26.0847H132.898C133.917 26.0847 134.206 25.4777 134.206 24.9137C134.206 24.2897 133.628 23.6817 132.564 23.6817C131.134 23.6817 130.51 24.7307 130.419 26.0817"/><path fill="#1D1D1B" d="M141.815 29.4481H141.785C141.192 30.2231 140.553 30.527 139.624 30.527C137.51 30.527 136.725 28.945 136.725 26.588C136.725 24.231 137.758 22.769 140.086 22.769H143.035V29.6141C143.035 31.9731 142.152 33.5691 139.72 33.5691C138.917 33.5632 138.116 33.4717 137.332 33.2961V32.5051H139.781C141.363 32.5051 141.819 31.273 141.819 29.736L141.815 29.4481ZM141.815 23.789H140.141C138.56 23.789 137.996 24.989 137.996 26.589C137.996 28.216 138.377 29.524 140.005 29.524C140.887 29.524 141.815 28.9 141.815 27.724V23.789Z"/><path fill="#1D1D1B" d="M150.868 22.769V30.3751H149.728L149.652 29.4481H149.621C148.998 30.2231 148.176 30.527 147.221 30.527C145.687 30.527 144.865 29.584 144.865 28.215V22.769H146.081V28.14C146.081 29.04 146.796 29.54 147.694 29.54C148.575 29.54 149.656 28.917 149.656 27.761V22.771L150.868 22.769Z"/><path fill="#1D1D1B" d="M152.698 19.7271H153.915V28.6721C153.915 29.3261 154.067 29.4621 155.054 29.4621V30.4511C153.003 30.6041 152.698 30.0701 152.698 28.6721V19.7271Z"/><path fill="#1D1D1B" d="M156.351 23.6817V22.8907C157.25 22.7249 158.16 22.633 159.074 22.6157C160.773 22.6157 161.764 23.1797 161.764 25.0967V30.3747H160.624L160.547 29.4477H160.517C159.849 30.2987 159.149 30.5267 158.176 30.5267C156.746 30.5267 155.833 29.6447 155.833 28.3057C155.833 26.6317 156.973 26.0387 158.42 26.0387H160.547V25.1577C160.547 24.2137 160.247 23.6817 158.967 23.6817H156.351ZM160.55 26.9067H158.696C157.63 26.9067 157.054 27.3467 157.054 28.2447C157.054 29.1577 157.754 29.5377 158.654 29.5377C159.49 29.5377 160.553 28.9747 160.553 27.7587L160.55 26.9067Z"/><path fill="#1D1D1B" d="M166.27 30.5001C164.202 30.3171 163.443 28.7801 163.443 26.5741C163.443 24.2321 164.324 22.6191 166.742 22.6191C167.486 22.6191 168.065 22.6971 169.023 22.8941V23.6851H166.742C165.174 23.6851 164.718 24.9171 164.718 26.5741C164.718 28.2311 165.174 29.4651 166.742 29.4651H169.023V30.2561C168.14 30.4391 167.577 30.5151 166.923 30.5301V31.1541C167.423 31.2151 168.172 31.5201 168.172 32.2491C168.172 32.9781 167.654 33.4211 166.696 33.4211C166.341 33.4259 165.988 33.3798 165.646 33.2841V32.7961H166.546C166.971 32.7961 167.23 32.6301 167.23 32.2791C167.23 31.9451 166.986 31.6561 166.271 31.5951L166.27 30.5001Z"/><path fill="#1D1D1B" d="M170.458 23.6823V22.8913C171.357 22.7255 172.267 22.6335 173.181 22.6163C174.88 22.6163 175.871 23.1803 175.871 25.0973V30.3753H174.731L174.656 29.4483H174.624C173.957 30.2993 173.257 30.5273 172.283 30.5273C170.853 30.5273 169.94 29.6453 169.94 28.3063C169.94 26.6323 171.08 26.0393 172.527 26.0393H174.656V25.1583C174.656 24.2143 174.356 23.6823 173.074 23.6823H170.458ZM172.313 21.0203C171.888 21.0203 171.461 21.2323 171.113 21.5673L170.793 20.8833C171.264 20.3053 171.735 20.0763 172.314 20.0763C173.014 20.0763 173.562 20.5763 174.063 20.5763C174.489 20.5763 174.914 20.3643 175.262 20.0293L175.581 20.7133C175.094 21.2913 174.637 21.5353 174.06 21.5353C173.513 21.5353 172.798 21.0183 172.311 21.0183L172.313 21.0203ZM174.654 26.9053H172.798C171.732 26.9053 171.156 27.3453 171.156 28.2433C171.156 29.1563 171.856 29.5363 172.756 29.5363C173.593 29.5363 174.655 28.9733 174.655 27.7573L174.654 26.9053Z"/><path fill="#1D1D1B" d="M177.61 26.5707C177.61 24.2287 178.491 22.6157 180.909 22.6157C183.326 22.6157 184.224 24.2287 184.224 26.5707C184.224 28.9297 183.341 30.5267 180.909 30.5267C178.476 30.5267 177.61 28.9267 177.61 26.5707ZM178.886 26.5707C178.886 28.2297 179.343 29.4917 180.911 29.4917C182.479 29.4917 182.948 28.2297 182.948 26.5707C182.948 24.9117 182.492 23.6507 180.911 23.6507C179.33 23.6507 178.882 24.9137 178.882 26.5707"/><path stroke="#1D1D1B" stroke-miterlimit="10" stroke-width="7" d="M189.651 149.65H0.349854V10.3501C0.349854 7.69793 1.4032 5.15439 3.27816 3.27903C4.20654 2.35044 5.3087 1.61385 6.52169 1.1113C7.73469 0.608755 9.03477 0.350098 10.3477 0.350098H199.649V139.65C199.649 142.302 198.596 144.846 196.721 146.721C194.846 148.597 192.303 149.65 189.651 149.65V149.65Z"/><path fill="#fff" d="M42.7238 117.021C41.6282 117.415 40.4739 117.622 39.3096 117.632C37.6269 117.632 36.2412 117.203 35.1525 116.163C34.1957 115.239 33.6018 113.754 33.6018 112.022C33.6188 108.705 35.8953 106.28 39.6225 106.28C40.9092 106.28 41.916 106.561 42.3939 106.792L42.048 107.963C41.4541 107.699 40.7113 107.485 39.5895 107.485C36.8901 107.485 35.1195 109.167 35.1195 111.956C35.1195 114.777 36.8191 116.444 39.4086 116.444C40.3484 116.444 40.9922 116.312 41.3221 116.144V112.83H39.0616V111.675H42.7238V117.021Z"/><path fill="#fff" d="M45.4111 113.787C45.4441 115.751 46.6978 116.559 48.1495 116.559C49.1883 116.559 49.8151 116.378 50.36 116.147L50.607 117.186C50.0961 117.417 49.2213 117.686 47.9515 117.686C45.4941 117.686 44.0254 116.069 44.0254 113.66C44.0254 111.251 45.4441 109.354 47.7696 109.354C50.376 109.354 51.0689 111.647 51.0689 113.116C51.0662 113.342 51.0499 113.568 51.0199 113.792L45.4111 113.787ZM49.6672 112.748C49.6832 111.824 49.2873 110.388 47.6546 110.388C46.1859 110.388 45.5431 111.741 45.4281 112.748H49.6672Z"/><path fill="#fff" d="M52.3748 116.031C52.9496 116.391 53.6103 116.59 54.2884 116.609C55.3441 116.609 55.839 116.081 55.839 115.421C55.839 114.728 55.4261 114.348 54.3543 113.952C52.9187 113.441 52.2428 112.652 52.2428 111.692C52.2428 110.405 53.2816 109.349 54.9972 109.349C55.6839 109.344 56.3602 109.516 56.9608 109.849L56.5979 110.9C56.1067 110.597 55.5411 110.437 54.9642 110.438C54.1064 110.438 53.6285 110.933 53.6285 111.527C53.6285 112.187 54.1064 112.484 55.1462 112.88C56.5319 113.408 57.2457 114.101 57.2457 115.289C57.2457 116.689 56.157 117.681 54.2604 117.681C53.3856 117.681 52.5777 117.467 52.0168 117.137L52.3748 116.031Z"/><path fill="#fff" d="M60.623 107.237V109.53H62.7015V110.636H60.623V114.942C60.623 115.932 60.9029 116.493 61.7117 116.493C61.9952 116.497 62.278 116.463 62.5526 116.393L62.6185 117.482C62.3386 117.598 61.8927 117.682 61.3318 117.682C60.656 117.682 60.1111 117.468 59.7652 117.072C59.3523 116.643 59.2043 115.933 59.2043 114.993V110.637H57.9666V109.53H59.2083V107.617L60.623 107.237Z"/><path fill="#fff" d="M68.6893 117.516L68.5743 116.51H68.5243C68.0794 117.137 67.2246 117.698 66.0828 117.698C64.4662 117.698 63.6414 116.559 63.6414 115.404C63.6414 113.474 65.357 112.418 68.4403 112.434V112.269C68.4403 111.609 68.2584 110.421 66.6257 110.421C65.8913 110.423 65.1719 110.629 64.5472 111.015L64.2172 110.058C64.8771 109.629 65.8339 109.349 66.8397 109.349C69.2811 109.349 69.875 111.015 69.875 112.616V115.6C69.8644 116.241 69.9085 116.881 70.007 117.514L68.6893 117.516ZM64.9611 108.161C64.9281 107.089 65.374 106.445 66.0828 106.445C66.4458 106.445 66.7267 106.594 67.1056 106.808C67.3695 106.957 67.6055 107.089 67.7985 107.089C68.0624 107.089 68.2114 106.94 68.2604 106.379H69.0192C69.0522 107.485 68.6733 108.046 67.8974 108.046C67.5515 108.046 67.2376 107.897 66.8917 107.716C66.5617 107.516 66.3798 107.416 66.1818 107.416C65.9179 107.416 65.7819 107.696 65.7529 108.158L64.9611 108.161ZM68.4753 113.441C66.8917 113.408 65.093 113.688 65.093 115.241C65.093 116.182 65.7199 116.627 66.4627 116.627C66.8845 116.638 67.2989 116.515 67.6459 116.274C67.9928 116.034 68.2542 115.69 68.3923 115.291C68.4439 115.142 68.4719 114.986 68.4753 114.829V113.441Z"/><path fill="#fff" d="M79.148 113.457C79.148 116.411 77.1025 117.698 75.1729 117.698C73.0113 117.698 71.3457 116.114 71.3457 113.589C71.3457 110.916 73.0943 109.349 75.3049 109.349C77.5974 109.349 79.148 111.015 79.148 113.457ZM72.8134 113.54C72.8134 115.289 73.8202 116.609 75.2389 116.609C76.6236 116.609 77.6633 115.309 77.6633 113.509C77.6633 112.156 76.9865 110.44 75.2719 110.44C73.5572 110.44 72.8134 112.022 72.8134 113.54V113.54Z"/><path fill="#fff" d="M91.3714 105.8V115.452C91.3714 116.161 91.3884 116.97 91.4374 117.514H90.1376L90.0717 116.128H90.0387C89.5928 117.019 88.62 117.696 87.3162 117.696C85.3867 117.696 83.902 116.062 83.902 113.637C83.885 110.98 85.5346 109.347 87.4812 109.347C88.7019 109.347 89.5268 109.924 89.8897 110.568H89.9227V105.8H91.3714ZM89.9197 112.779C89.9225 112.573 89.9003 112.368 89.8537 112.168C89.7503 111.69 89.4859 111.262 89.1045 110.955C88.7232 110.649 88.2483 110.483 87.7592 110.485C86.2595 110.485 85.3667 111.805 85.3667 113.571C85.3667 115.188 86.1585 116.524 87.7262 116.524C88.6989 116.524 89.5898 115.881 89.8537 114.792C89.9021 114.586 89.9242 114.376 89.9197 114.165V112.779Z"/><path fill="#fff" d="M94.3737 113.787C94.4067 115.751 95.6605 116.559 97.1122 116.559C98.1519 116.559 98.7788 116.378 99.3227 116.147L99.5707 117.186C99.0588 117.417 98.1849 117.686 96.9142 117.686C94.4567 117.686 92.988 116.069 92.988 113.66C92.988 111.251 94.4067 109.354 96.7333 109.354C99.3397 109.354 100.033 111.647 100.033 113.116C100.03 113.342 100.014 113.568 99.9826 113.792L94.3737 113.787ZM98.6298 112.748C98.6468 111.824 98.2509 110.388 96.6173 110.388C95.1496 110.388 94.5057 111.741 94.3907 112.748H98.6298Z"/><path fill="#fff" d="M105.377 106.544C106.286 106.382 107.208 106.305 108.132 106.313C109.665 106.313 110.655 106.594 111.348 107.221C111.909 107.721 112.223 108.475 112.223 109.332C112.223 110.801 111.299 111.774 110.123 112.17V112.22C110.981 112.52 111.493 113.309 111.757 114.464C112.12 116.015 112.384 117.087 112.615 117.516H111.13C110.948 117.203 110.701 116.246 110.387 114.86C110.057 113.325 109.463 112.748 108.161 112.698H106.808V117.516H105.373L105.377 106.544ZM106.812 111.609H108.28C109.814 111.609 110.787 110.768 110.787 109.497C110.787 108.062 109.748 107.435 108.231 107.419C107.538 107.419 107.043 107.485 106.812 107.55V111.609Z"/><path fill="#fff" d="M114.549 113.787C114.582 115.751 115.835 116.559 117.287 116.559C118.327 116.559 118.954 116.378 119.497 116.147L119.745 117.186C119.234 117.417 118.36 117.686 117.089 117.686C114.632 117.686 113.164 116.069 113.164 113.66C113.164 111.251 114.582 109.354 116.908 109.354C119.514 109.354 120.207 111.647 120.207 113.116C120.205 113.342 120.188 113.568 120.157 113.792L114.549 113.787ZM118.805 112.748C118.822 111.824 118.426 110.388 116.792 110.388C115.324 110.388 114.68 111.741 114.566 112.748H118.805Z"/><path fill="#fff" d="M127.383 117.219C127.004 117.419 126.162 117.681 125.09 117.681C122.682 117.681 121.114 116.048 121.114 113.606C121.114 111.147 122.797 109.365 125.403 109.365C126.261 109.365 127.02 109.58 127.416 109.778L127.086 110.9C126.74 110.7 126.195 110.52 125.403 110.52C123.572 110.52 122.583 111.873 122.583 113.54C122.583 115.388 123.77 116.526 125.354 116.526C125.97 116.527 126.579 116.391 127.136 116.126L127.383 117.219Z"/><path fill="#fff" d="M135.532 115.338C135.532 116.163 135.549 116.889 135.598 117.516H134.311L134.229 116.216H134.192C133.923 116.675 133.537 117.054 133.073 117.315C132.609 117.576 132.085 117.709 131.553 117.701C130.299 117.701 128.797 117.008 128.797 114.201V109.531H130.249V113.953C130.249 115.471 130.711 116.494 132.031 116.494C133.004 116.494 133.68 115.818 133.944 115.174C134.032 114.936 134.077 114.685 134.076 114.432V109.532H135.528L135.532 115.338Z"/><path fill="#fff" d="M137.808 112.022C137.808 111.081 137.792 110.273 137.742 109.53H139.013L139.062 111.098H139.128C139.491 110.025 140.366 109.349 141.339 109.349C141.478 109.347 141.617 109.363 141.752 109.398V110.768C141.589 110.732 141.423 110.716 141.257 110.718C140.234 110.718 139.508 111.494 139.31 112.583C139.269 112.806 139.247 113.032 139.244 113.259V117.516H137.808V112.022Z"/><path fill="#fff" d="M142.675 116.031C143.25 116.391 143.911 116.591 144.589 116.609C145.645 116.609 146.14 116.081 146.14 115.421C146.14 114.728 145.727 114.348 144.655 113.952C143.219 113.441 142.543 112.652 142.543 111.692C142.543 110.405 143.582 109.349 145.298 109.349C145.984 109.344 146.66 109.516 147.26 109.849L146.897 110.905C146.407 110.602 145.841 110.442 145.265 110.443C144.407 110.443 143.929 110.938 143.929 111.532C143.929 112.192 144.407 112.489 145.447 112.885C146.831 113.413 147.546 114.106 147.546 115.294C147.546 116.694 146.457 117.686 144.561 117.686C143.686 117.686 142.878 117.472 142.317 117.142L142.675 116.031Z"/><path fill="#fff" d="M156.317 113.457C156.317 116.411 154.272 117.698 152.341 117.698C150.181 117.698 148.515 116.114 148.515 113.589C148.515 110.916 150.264 109.349 152.473 109.349C154.767 109.349 156.317 111.015 156.317 113.457ZM149.983 113.54C149.983 115.289 150.989 116.609 152.407 116.609C153.793 116.609 154.833 115.309 154.833 113.509C154.833 112.156 154.156 110.44 152.44 110.44C150.725 110.44 149.983 112.022 149.983 113.54V113.54Z"/><path fill="#fff" d="M157.604 116.031C158.179 116.391 158.84 116.59 159.518 116.609C160.573 116.609 161.068 116.081 161.068 115.421C161.068 114.728 160.655 114.348 159.584 113.952C158.149 113.441 157.472 112.652 157.472 111.692C157.472 110.405 158.512 109.349 160.227 109.349C160.913 109.344 161.59 109.516 162.19 109.849L161.827 110.905C161.336 110.602 160.77 110.442 160.194 110.443C159.336 110.443 158.858 110.938 158.858 111.532C158.858 112.192 159.336 112.489 160.376 112.885C161.761 113.413 162.47 114.106 162.47 115.294C162.47 116.694 161.381 117.686 159.485 117.686C158.61 117.686 157.802 117.472 157.241 117.142L157.604 116.031Z"/></g><defs><clipPath id="clip0"><rect width="200" height="150" fill="#fff"/></clipPath></defs></svg>