<svg width="133" height="24" viewBox="0 0 133 24" fill="none" xmlns="http://www.w3.org/2000/svg">
<path d="M18.4146 1.9898C18.0524 0.948978 17.8712 0.551021 17.6599 0.551021C17.4788 0.551021 17.358 0.704082 16.9052 1.95918L10.5054 19.4082H10.445C9.9922 17.7857 6.85265 6.55102 6.39983 4.59184C6.09796 3.2449 5.82626 2.17347 5.82626 1.77551C5.82626 1.37755 6.03758 1.13265 6.21871 1.04082C6.58096 0.857143 7.15453 0.857143 7.39604 0.857143C7.54697 0.857143 7.69791 0.826531 7.69791 0.642856C7.69791 0.520407 7.57716 0.428571 7.15453 0.428571C5.64514 0.428571 4.31687 0.520407 4.04518 0.520407C3.71311 0.520407 2.05278 0.428571 0.483006 0.428571C0.181127 0.428571 0 0.489795 0 0.642856C0 0.826531 0.120752 0.857143 0.271691 0.857143C0.483006 0.857143 1.2377 0.887755 1.63015 1.04082C2.41503 1.34694 2.80747 1.80612 3.29048 3.42857L8.66393 21.5816C9.26768 23.6633 9.41862 24 9.7205 24C10.0828 24 10.2337 23.6633 10.7167 22.3776C11.8035 19.5306 15.9392 8.32653 17.026 5.38776H17.0863L23.0032 22.4082C23.4258 23.602 23.6069 24 23.9088 24C24.2409 24 24.3918 23.6327 25.1767 21.3673C26.354 17.9388 29.403 8.20408 30.7313 4.31633C31.3048 2.63265 31.7879 1.34694 32.6935 1.0102C33.0256 0.887755 33.5991 0.857143 33.7199 0.857143C33.901 0.857143 33.9916 0.765305 33.9916 0.612244C33.9916 0.489795 33.8406 0.428571 33.5689 0.428571C32.6331 0.428571 31.335 0.520407 31.1237 0.520407C30.852 0.520407 29.5841 0.428571 28.0446 0.428571C27.6823 0.428571 27.5314 0.489795 27.5314 0.642856C27.5314 0.765305 27.6521 0.857143 27.8031 0.857143C29.1917 0.857143 29.5238 1.22449 29.5238 1.77551C29.5238 2.17347 29.4936 2.60204 29.1917 3.73469C28.1351 7.65306 25.3578 16.5306 24.5428 19.3469H24.422L18.4146 1.9898Z" fill="#CBCBCB"/>
<path d="M41.4362 9.30612C41.4362 4.53061 41.4362 3.67347 41.4966 2.69388C41.5569 1.62245 41.7984 1.10204 42.6135 0.948978C42.9758 0.887755 43.1569 0.857143 43.3682 0.857143C43.489 0.857143 43.6097 0.795917 43.6097 0.673468C43.6097 0.489795 43.4588 0.428571 43.1267 0.428571C42.2211 0.428571 40.3192 0.520407 40.1683 0.520407C40.0174 0.520407 38.1155 0.428571 37.1193 0.428571C36.7873 0.428571 36.6363 0.489795 36.6363 0.673468C36.6363 0.795917 36.7571 0.857143 36.8778 0.857143C37.0891 0.857143 37.4816 0.887755 37.8136 0.979592C38.4778 1.13265 38.7797 1.65306 38.84 2.69388C38.9004 3.67347 38.9004 4.53061 38.9004 9.30612V14.6939C38.9004 17.6327 38.9004 20.051 38.7495 21.3367C38.6287 22.2245 38.4778 22.898 37.874 23.0204C37.6023 23.0816 37.2401 23.1429 36.9684 23.1429C36.7873 23.1429 36.7269 23.2347 36.7269 23.3265C36.7269 23.5102 36.8778 23.5714 37.2099 23.5714C38.1155 23.5714 40.0174 23.4796 40.1683 23.4796C40.3192 23.4796 42.2211 23.5714 43.8814 23.5714C44.2135 23.5714 44.3644 23.4796 44.3644 23.3265C44.3644 23.2347 44.304 23.1429 44.1229 23.1429C43.8512 23.1429 43.1871 23.0816 42.7645 23.0204C41.8588 22.898 41.6777 22.2245 41.5871 21.3367C41.4362 20.051 41.4362 17.6327 41.4362 14.6939V9.30612Z" fill="#CBCBCB"/>
<path d="M58.6261 1.7449L62.4298 1.80612C65.3278 1.86735 66.0523 2.57143 66.1429 3.48979L66.173 3.82653C66.2032 4.2551 66.2636 4.34694 66.4146 4.34694C66.5353 4.34694 66.6259 4.22449 66.6259 3.94898C66.6259 3.61224 66.7164 1.5 66.7164 0.581632C66.7164 0.39796 66.7164 0.214285 66.5655 0.214285C66.4447 0.214285 66.173 0.306122 65.7202 0.367346C65.2372 0.459183 64.5429 0.520407 63.5769 0.520407H52.2564C51.8942 0.520407 50.747 0.459183 49.8716 0.367346C49.0565 0.306122 48.7546 0 48.5433 0C48.4226 0 48.3018 0.39796 48.2414 0.581632C48.1811 0.826531 47.5773 3.45918 47.5773 3.76531C47.5773 3.94898 47.6377 4.04082 47.7282 4.04082C47.849 4.04082 47.9396 3.97959 48.0301 3.73469C48.1207 3.52041 48.2113 3.30612 48.5433 2.78571C49.0263 2.05102 49.7508 1.83673 51.6225 1.80612L56.0903 1.7449V14.6939C56.0903 17.6327 56.0903 20.051 55.9394 21.3367C55.8186 22.2245 55.6677 22.898 55.0639 23.0204C54.7922 23.0816 54.43 23.1429 54.1583 23.1429C53.9771 23.1429 53.9168 23.2347 53.9168 23.3265C53.9168 23.5102 54.0677 23.5714 54.3998 23.5714C55.3054 23.5714 57.2072 23.4796 57.3582 23.4796C57.5091 23.4796 59.411 23.5714 61.0713 23.5714C61.4034 23.5714 61.5543 23.4796 61.5543 23.3265C61.5543 23.2347 61.4939 23.1429 61.3128 23.1429C61.0411 23.1429 60.377 23.0816 59.9543 23.0204C59.0487 22.898 58.8676 22.2245 58.777 21.3367C58.6261 20.051 58.6261 17.6327 58.6261 14.6939V1.7449Z" fill="#CBCBCB"/>
<path d="M73.0682 14.6939C73.0682 17.6327 73.0682 20.051 72.9172 21.3367C72.7965 22.2245 72.6455 22.898 72.0418 23.0204C71.7701 23.0816 71.4078 23.1429 71.1361 23.1429C70.955 23.1429 70.8946 23.2347 70.8946 23.3265C70.8946 23.5102 71.0456 23.5714 71.3776 23.5714C72.2833 23.5714 74.1851 23.4796 74.2757 23.4796C74.4266 23.4796 76.3284 23.5714 77.9888 23.5714C78.3209 23.5714 78.4718 23.4796 78.4718 23.3265C78.4718 23.2347 78.4114 23.1429 78.2303 23.1429C77.9586 23.1429 77.2945 23.0816 76.8718 23.0204C75.9662 22.898 75.7851 22.2245 75.6945 21.3367C75.5436 20.051 75.5436 17.6327 75.5436 14.6939V2.11225C75.5436 1.80612 75.6039 1.59184 75.7851 1.53061C76.0568 1.40816 76.5699 1.34694 77.0831 1.34694C77.7775 1.34694 79.6189 1.22449 81.2189 2.87755C82.8188 4.53061 82.9094 6.58163 82.9094 7.59184C82.9094 10.4082 80.6151 12.5816 77.6869 12.5816C77.053 12.5816 76.8718 12.6122 76.8718 12.8571C76.8718 13.0102 77.053 13.0714 77.2039 13.0714C77.3548 13.102 77.6869 13.102 77.8378 13.102C82.1245 13.102 85.2641 10.1633 85.2641 5.81633C85.2641 4.19388 84.4188 2.81633 83.7547 2.17347C83.2717 1.71429 81.9132 0.428571 78.1397 0.428571C76.7511 0.428571 75.0002 0.520407 74.336 0.520407C74.0945 0.520407 72.2833 0.428571 70.9248 0.428571C70.5928 0.428571 70.4418 0.489795 70.4418 0.673468C70.4418 0.795917 70.5626 0.857143 70.6833 0.857143C70.955 0.857143 71.4682 0.887755 71.7097 0.948978C72.7059 1.16326 72.9474 1.65306 73.0078 2.69388C73.0682 3.67347 73.0682 4.53061 73.0682 9.30612V14.6939Z" fill="#CBCBCB"/>
<path d="M88.5751 20.2041C88.0317 21.7347 87.4279 22.898 86.0393 23.0816C85.7978 23.1122 85.3752 23.1429 85.1638 23.1429C85.0129 23.1429 84.8921 23.2041 84.8921 23.3265C84.8921 23.5102 85.0733 23.5714 85.4657 23.5714C86.8845 23.5714 88.5449 23.4796 88.8769 23.4796C89.209 23.4796 90.5071 23.5714 91.2316 23.5714C91.5033 23.5714 91.6844 23.5102 91.6844 23.3265C91.6844 23.2041 91.5939 23.1429 91.3825 23.1429H91.0807C90.5675 23.1429 89.9335 22.8673 89.9335 22.2551C89.9335 21.7041 90.0845 20.9694 90.3561 20.2041L92.1674 14.7857C92.2278 14.6327 92.3184 14.5408 92.4693 14.5408H98.9597C99.1106 14.5408 99.171 14.602 99.2314 14.7245L102.039 22.2551C102.22 22.7449 102.039 23.0204 101.858 23.0816C101.737 23.1122 101.646 23.1735 101.646 23.2959C101.646 23.4796 101.978 23.4796 102.552 23.5102C104.635 23.5714 106.839 23.5714 107.292 23.5714C107.624 23.5714 107.895 23.5102 107.895 23.3265C107.895 23.1735 107.775 23.1429 107.593 23.1429C107.292 23.1429 106.839 23.1122 106.386 22.9592C105.752 22.7755 104.877 22.2857 103.79 19.5612C101.948 14.9082 97.2088 2.26531 96.756 1.10204C96.3937 0.153061 96.273 0 96.0918 0C95.9107 0 95.79 0.183673 95.4277 1.19388L88.5751 20.2041ZM92.8014 13.4388C92.7108 13.4388 92.6504 13.3776 92.7108 13.2245L95.3673 4.95918C95.5183 4.5 95.6692 4.5 95.8202 4.95918L98.688 13.2245C98.7182 13.3469 98.7182 13.4388 98.5673 13.4388H92.8014Z" fill="#CBCBCB"/>
<path d="M112.218 14.6939C112.218 17.6327 112.218 20.051 112.067 21.3367C111.946 22.2245 111.795 22.898 111.192 23.0204C110.92 23.0816 110.558 23.1429 110.286 23.1429C110.105 23.1429 110.045 23.2347 110.045 23.3265C110.045 23.5102 110.195 23.5714 110.528 23.5714C111.433 23.5714 113.335 23.4796 113.365 23.4796C113.516 23.4796 115.418 23.5714 117.078 23.5714C117.41 23.5714 117.561 23.4796 117.561 23.3265C117.561 23.2347 117.501 23.1429 117.32 23.1429C117.048 23.1429 116.384 23.0816 115.961 23.0204C115.056 22.898 114.875 22.2245 114.784 21.3367C114.633 20.051 114.633 17.6327 114.633 14.6939V13.9592C114.633 13.8061 114.693 13.7143 114.844 13.7143L118.558 13.7755C118.739 13.7755 118.829 13.8367 118.95 13.9592C119.554 14.7551 120.973 16.8061 122.24 18.4898C123.961 20.7857 125.018 22.2857 126.316 22.9898C127.101 23.4184 127.855 23.5714 129.546 23.5714H131.689C132.233 23.5714 132.414 23.5102 132.414 23.3265C132.414 23.2347 132.293 23.1429 132.142 23.1429C131.961 23.1429 131.538 23.1429 130.965 23.051C130.21 22.9286 128.912 22.5918 127.282 20.8469C125.531 18.949 123.478 16.2245 121.003 13.0102C123.72 10.4694 124.655 8.20408 124.655 5.93878C124.655 3.82653 123.327 2.32653 122.573 1.77551C120.973 0.612244 118.95 0.428571 117.048 0.428571C116.112 0.428571 113.818 0.520407 113.486 0.520407C113.335 0.520407 111.433 0.428571 110.075 0.428571C109.743 0.428571 109.592 0.489795 109.592 0.673468C109.592 0.795917 109.712 0.857143 109.833 0.857143C110.105 0.857143 110.618 0.887755 110.86 0.948978C111.856 1.16326 112.097 1.65306 112.158 2.69388C112.218 3.67347 112.218 4.53061 112.218 9.30612V14.6939ZM114.633 1.95918C114.633 1.77551 114.724 1.65306 114.875 1.59184C115.176 1.5 115.992 1.40816 116.897 1.40816C120.127 1.40816 122.12 3.70408 122.12 7.53061C122.12 9.85714 121.335 11.5102 120.278 12.2449C119.584 12.7347 118.739 12.8265 118.014 12.8265C116.686 12.8265 115.297 12.6122 114.844 12.3367C114.693 12.2449 114.633 12.1224 114.633 11.9694V1.95918Z" fill="#CBCBCB"/>
</svg>
