<svg width="540" height="540" viewBox="0 0 540 540" fill="none" xmlns="http://www.w3.org/2000/svg">
<rect width="540" height="540" fill="#101010"/>
<rect x="0.25" y="0.25" width="539.5" height="539.5" stroke="#101010" stroke-opacity="0.2" stroke-width="0.5"/>
<path d="M135.85 217.525C134.83 214.635 134.32 213.53 133.725 213.53C133.215 213.53 132.875 213.955 131.6 217.44L113.58 265.89H113.41C112.135 261.385 103.295 230.19 102.02 224.75C101.17 221.01 100.405 218.035 100.405 216.93C100.405 215.825 101 215.145 101.51 214.89C102.53 214.38 104.145 214.38 104.825 214.38C105.25 214.38 105.675 214.295 105.675 213.785C105.675 213.445 105.335 213.19 104.145 213.19C99.895 213.19 96.155 213.445 95.39 213.445C94.455 213.445 89.78 213.19 85.36 213.19C84.51 213.19 84 213.36 84 213.785C84 214.295 84.34 214.38 84.765 214.38C85.36 214.38 87.485 214.465 88.59 214.89C90.8 215.74 91.905 217.015 93.265 221.52L108.395 271.925C110.095 277.705 110.52 278.64 111.37 278.64C112.39 278.64 112.815 277.705 114.175 274.135C117.235 266.23 128.88 235.12 131.94 226.96H132.11L148.77 274.22C149.96 277.535 150.47 278.64 151.32 278.64C152.255 278.64 152.68 277.62 154.89 271.33C158.205 261.81 166.79 234.78 170.53 223.985C172.145 219.31 173.505 215.74 176.055 214.805C176.99 214.465 178.605 214.38 178.945 214.38C179.455 214.38 179.71 214.125 179.71 213.7C179.71 213.36 179.285 213.19 178.52 213.19C175.885 213.19 172.23 213.445 171.635 213.445C170.87 213.445 167.3 213.19 162.965 213.19C161.945 213.19 161.52 213.36 161.52 213.785C161.52 214.125 161.86 214.38 162.285 214.38C166.195 214.38 167.13 215.4 167.13 216.93C167.13 218.035 167.045 219.225 166.195 222.37C163.22 233.25 155.4 257.9 153.105 265.72H152.765L135.85 217.525Z" fill="white"/>
<path d="M200.672 237.84C200.672 224.58 200.672 222.2 200.842 219.48C201.012 216.505 201.692 215.06 203.987 214.635C205.007 214.465 205.517 214.38 206.112 214.38C206.452 214.38 206.792 214.21 206.792 213.87C206.792 213.36 206.367 213.19 205.432 213.19C202.882 213.19 197.527 213.445 197.102 213.445C196.677 213.445 191.322 213.19 188.517 213.19C187.582 213.19 187.157 213.36 187.157 213.87C187.157 214.21 187.497 214.38 187.837 214.38C188.432 214.38 189.537 214.465 190.472 214.72C192.342 215.145 193.192 216.59 193.362 219.48C193.532 222.2 193.532 224.58 193.532 237.84V252.8C193.532 260.96 193.532 267.675 193.107 271.245C192.767 273.71 192.342 275.58 190.642 275.92C189.877 276.09 188.857 276.26 188.092 276.26C187.582 276.26 187.412 276.515 187.412 276.77C187.412 277.28 187.837 277.45 188.772 277.45C191.322 277.45 196.677 277.195 197.102 277.195C197.527 277.195 202.882 277.45 207.557 277.45C208.492 277.45 208.917 277.195 208.917 276.77C208.917 276.515 208.747 276.26 208.237 276.26C207.472 276.26 205.602 276.09 204.412 275.92C201.862 275.58 201.352 273.71 201.097 271.245C200.672 267.675 200.672 260.96 200.672 252.8V237.84Z" fill="white"/>
<path d="M249.073 216.845L259.783 217.015C267.943 217.185 269.983 219.14 270.238 221.69L270.323 222.625C270.408 223.815 270.578 224.07 271.003 224.07C271.343 224.07 271.598 223.73 271.598 222.965C271.598 222.03 271.853 216.165 271.853 213.615C271.853 213.105 271.853 212.595 271.428 212.595C271.088 212.595 270.323 212.85 269.048 213.02C267.688 213.275 265.733 213.445 263.013 213.445H231.138C230.118 213.445 226.888 213.275 224.423 213.02C222.128 212.85 221.278 212 220.683 212C220.343 212 220.003 213.105 219.833 213.615C219.663 214.295 217.963 221.605 217.963 222.455C217.963 222.965 218.133 223.22 218.388 223.22C218.728 223.22 218.983 223.05 219.238 222.37C219.493 221.775 219.748 221.18 220.683 219.735C222.043 217.695 224.083 217.1 229.353 217.015L241.933 216.845V252.8C241.933 260.96 241.933 267.675 241.508 271.245C241.168 273.71 240.743 275.58 239.043 275.92C238.278 276.09 237.258 276.26 236.493 276.26C235.983 276.26 235.813 276.515 235.813 276.77C235.813 277.28 236.238 277.45 237.173 277.45C239.723 277.45 245.078 277.195 245.503 277.195C245.928 277.195 251.283 277.45 255.958 277.45C256.893 277.45 257.318 277.195 257.318 276.77C257.318 276.515 257.148 276.26 256.638 276.26C255.873 276.26 254.003 276.09 252.813 275.92C250.263 275.58 249.753 273.71 249.498 271.245C249.073 267.675 249.073 260.96 249.073 252.8V216.845Z" fill="white"/>
<path d="M289.738 252.8C289.738 260.96 289.738 267.675 289.313 271.245C288.973 273.71 288.548 275.58 286.848 275.92C286.083 276.09 285.063 276.26 284.298 276.26C283.788 276.26 283.618 276.515 283.618 276.77C283.618 277.28 284.043 277.45 284.978 277.45C287.528 277.45 292.883 277.195 293.138 277.195C293.563 277.195 298.918 277.45 303.593 277.45C304.528 277.45 304.953 277.195 304.953 276.77C304.953 276.515 304.783 276.26 304.273 276.26C303.508 276.26 301.638 276.09 300.448 275.92C297.898 275.58 297.388 273.71 297.133 271.245C296.708 267.675 296.708 260.96 296.708 252.8V217.865C296.708 217.015 296.878 216.42 297.388 216.25C298.153 215.91 299.598 215.74 301.043 215.74C302.998 215.74 308.183 215.4 312.688 219.99C317.193 224.58 317.448 230.275 317.448 233.08C317.448 240.9 310.988 246.935 302.743 246.935C300.958 246.935 300.448 247.02 300.448 247.7C300.448 248.125 300.958 248.295 301.383 248.295C301.808 248.38 302.743 248.38 303.168 248.38C315.238 248.38 324.078 240.22 324.078 228.15C324.078 223.645 321.698 219.82 319.828 218.035C318.468 216.76 314.643 213.19 304.018 213.19C300.108 213.19 295.178 213.445 293.308 213.445C292.628 213.445 287.528 213.19 283.703 213.19C282.768 213.19 282.343 213.36 282.343 213.87C282.343 214.21 282.683 214.38 283.023 214.38C283.788 214.38 285.233 214.465 285.913 214.635C288.718 215.23 289.398 216.59 289.568 219.48C289.738 222.2 289.738 224.58 289.738 237.84V252.8Z" fill="white"/>
<path d="M333.401 268.1C331.871 272.35 330.171 275.58 326.261 276.09C325.581 276.175 324.391 276.26 323.796 276.26C323.371 276.26 323.031 276.43 323.031 276.77C323.031 277.28 323.541 277.45 324.646 277.45C328.641 277.45 333.316 277.195 334.251 277.195C335.186 277.195 338.841 277.45 340.881 277.45C341.646 277.45 342.156 277.28 342.156 276.77C342.156 276.43 341.901 276.26 341.306 276.26H340.456C339.011 276.26 337.226 275.495 337.226 273.795C337.226 272.265 337.651 270.225 338.416 268.1L343.516 253.055C343.686 252.63 343.941 252.375 344.366 252.375H362.641C363.066 252.375 363.236 252.545 363.406 252.885L371.311 273.795C371.821 275.155 371.311 275.92 370.801 276.09C370.461 276.175 370.206 276.345 370.206 276.685C370.206 277.195 371.141 277.195 372.756 277.28C378.621 277.45 384.826 277.45 386.101 277.45C387.036 277.45 387.801 277.28 387.801 276.77C387.801 276.345 387.461 276.26 386.951 276.26C386.101 276.26 384.826 276.175 383.551 275.75C381.766 275.24 379.301 273.88 376.241 266.315C371.056 253.395 357.711 218.29 356.436 215.06C355.416 212.425 355.076 212 354.566 212C354.056 212 353.716 212.51 352.696 215.315L333.401 268.1ZM345.301 249.315C345.046 249.315 344.876 249.145 345.046 248.72L352.526 225.77C352.951 224.495 353.376 224.495 353.801 225.77L361.876 248.72C361.961 249.06 361.961 249.315 361.536 249.315H345.301Z" fill="white"/>
<path d="M399.972 252.8C399.972 260.96 399.972 267.675 399.547 271.245C399.207 273.71 398.782 275.58 397.082 275.92C396.317 276.09 395.297 276.26 394.532 276.26C394.022 276.26 393.852 276.515 393.852 276.77C393.852 277.28 394.277 277.45 395.212 277.45C397.762 277.45 403.117 277.195 403.202 277.195C403.627 277.195 408.982 277.45 413.657 277.45C414.592 277.45 415.017 277.195 415.017 276.77C415.017 276.515 414.847 276.26 414.337 276.26C413.572 276.26 411.702 276.09 410.512 275.92C407.962 275.58 407.452 273.71 407.197 271.245C406.772 267.675 406.772 260.96 406.772 252.8V250.76C406.772 250.335 406.942 250.08 407.367 250.08L417.822 250.25C418.332 250.25 418.587 250.42 418.927 250.76C420.627 252.97 424.622 258.665 428.192 263.34C433.037 269.715 436.012 273.88 439.667 275.835C441.877 277.025 444.002 277.45 448.762 277.45H454.797C456.327 277.45 456.837 277.28 456.837 276.77C456.837 276.515 456.497 276.26 456.072 276.26C455.562 276.26 454.372 276.26 452.757 276.005C450.632 275.665 446.977 274.73 442.387 269.885C437.457 264.615 431.677 257.05 424.707 248.125C432.357 241.07 434.992 234.78 434.992 228.49C434.992 222.625 431.252 218.46 429.127 216.93C424.622 213.7 418.927 213.19 413.572 213.19C410.937 213.19 404.477 213.445 403.542 213.445C403.117 213.445 397.762 213.19 393.937 213.19C393.002 213.19 392.577 213.36 392.577 213.87C392.577 214.21 392.917 214.38 393.257 214.38C394.022 214.38 395.467 214.465 396.147 214.635C398.952 215.23 399.632 216.59 399.802 219.48C399.972 222.2 399.972 224.58 399.972 237.84V252.8ZM406.772 217.44C406.772 216.93 407.027 216.59 407.452 216.42C408.302 216.165 410.597 215.91 413.147 215.91C422.242 215.91 427.852 222.285 427.852 232.91C427.852 239.37 425.642 243.96 422.667 246C420.712 247.36 418.332 247.615 416.292 247.615C412.552 247.615 408.642 247.02 407.367 246.255C406.942 246 406.772 245.66 406.772 245.235V217.44Z" fill="white"/>
<path d="M170.277 328.195L175.599 315.129H176.976L182.298 328.195H180.57L179.007 324.259H173.548L171.986 328.195H170.277ZM176.273 317.16C175.693 318.787 175.137 320.265 174.603 321.593L174.115 322.824H178.441L177.953 321.593C177.419 320.239 176.872 318.761 176.312 317.16H176.273Z" fill="white"/>
<path d="M185.521 318.586C185.521 318.97 185.599 319.289 185.755 319.543C185.912 319.79 186.12 319.995 186.38 320.158C186.647 320.321 186.953 320.454 187.298 320.558C187.65 320.662 188.014 320.76 188.392 320.851C188.9 320.975 189.398 321.112 189.886 321.261C190.381 321.411 190.82 321.619 191.205 321.886C191.589 322.147 191.898 322.489 192.132 322.912C192.373 323.335 192.494 323.879 192.494 324.543C192.494 325.22 192.367 325.806 192.113 326.3C191.865 326.789 191.517 327.192 191.068 327.511C190.625 327.824 190.095 328.055 189.476 328.205C188.858 328.361 188.18 328.439 187.445 328.439C187.106 328.439 186.758 328.416 186.4 328.371C186.048 328.332 185.71 328.276 185.384 328.205C185.065 328.133 184.775 328.052 184.515 327.961C184.255 327.869 184.05 327.778 183.9 327.687V326.232C184.134 326.349 184.398 326.457 184.691 326.554C184.984 326.652 185.287 326.737 185.599 326.808C185.912 326.873 186.227 326.925 186.546 326.965C186.865 327.004 187.165 327.023 187.445 327.023C187.9 327.023 188.333 326.984 188.744 326.906C189.16 326.828 189.525 326.698 189.837 326.515C190.15 326.333 190.397 326.086 190.58 325.773C190.762 325.454 190.853 325.057 190.853 324.582C190.853 324.191 190.772 323.869 190.609 323.615C190.453 323.361 190.241 323.153 189.974 322.99C189.707 322.821 189.398 322.684 189.046 322.58C188.701 322.476 188.337 322.378 187.953 322.287C187.445 322.17 186.947 322.039 186.458 321.896C185.977 321.746 185.544 321.541 185.16 321.281C184.782 321.021 184.476 320.685 184.242 320.275C184.014 319.865 183.9 319.341 183.9 318.703C183.9 318.039 184.017 317.469 184.251 316.994C184.486 316.512 184.805 316.115 185.208 315.802C185.612 315.49 186.084 315.259 186.624 315.109C187.165 314.959 187.741 314.884 188.353 314.884C189.05 314.884 189.697 314.953 190.296 315.09C190.902 315.22 191.455 315.392 191.956 315.607V317.082C191.416 316.854 190.856 316.668 190.277 316.525C189.704 316.382 189.089 316.307 188.431 316.3C187.936 316.3 187.507 316.356 187.142 316.466C186.777 316.571 186.475 316.724 186.234 316.925C185.993 317.121 185.814 317.362 185.697 317.648C185.58 317.928 185.521 318.241 185.521 318.586Z" fill="white"/>
<path d="M196.556 318.586C196.556 318.97 196.634 319.289 196.79 319.543C196.947 319.79 197.155 319.995 197.415 320.158C197.682 320.321 197.988 320.454 198.333 320.558C198.685 320.662 199.05 320.76 199.427 320.851C199.935 320.975 200.433 321.112 200.921 321.261C201.416 321.411 201.856 321.619 202.24 321.886C202.624 322.147 202.933 322.489 203.167 322.912C203.408 323.335 203.529 323.879 203.529 324.543C203.529 325.22 203.402 325.806 203.148 326.3C202.9 326.789 202.552 327.192 202.103 327.511C201.66 327.824 201.13 328.055 200.511 328.205C199.893 328.361 199.216 328.439 198.48 328.439C198.141 328.439 197.793 328.416 197.435 328.371C197.083 328.332 196.745 328.276 196.419 328.205C196.1 328.133 195.811 328.052 195.55 327.961C195.29 327.869 195.085 327.778 194.935 327.687V326.232C195.169 326.349 195.433 326.457 195.726 326.554C196.019 326.652 196.322 326.737 196.634 326.808C196.947 326.873 197.262 326.925 197.581 326.965C197.9 327.004 198.2 327.023 198.48 327.023C198.936 327.023 199.369 326.984 199.779 326.906C200.195 326.828 200.56 326.698 200.872 326.515C201.185 326.333 201.432 326.086 201.615 325.773C201.797 325.454 201.888 325.057 201.888 324.582C201.888 324.191 201.807 323.869 201.644 323.615C201.488 323.361 201.276 323.153 201.009 322.99C200.742 322.821 200.433 322.684 200.081 322.58C199.736 322.476 199.372 322.378 198.988 322.287C198.48 322.17 197.982 322.039 197.494 321.896C197.012 321.746 196.579 321.541 196.195 321.281C195.817 321.021 195.511 320.685 195.277 320.275C195.049 319.865 194.935 319.341 194.935 318.703C194.935 318.039 195.052 317.469 195.287 316.994C195.521 316.512 195.84 316.115 196.244 315.802C196.647 315.49 197.119 315.259 197.66 315.109C198.2 314.959 198.776 314.884 199.388 314.884C200.085 314.884 200.733 314.953 201.331 315.09C201.937 315.22 202.49 315.392 202.992 315.607V317.082C202.451 316.854 201.891 316.668 201.312 316.525C200.739 316.382 200.124 316.307 199.466 316.3C198.971 316.3 198.542 316.356 198.177 316.466C197.813 316.571 197.51 316.724 197.269 316.925C197.028 317.121 196.849 317.362 196.732 317.648C196.615 317.928 196.556 318.241 196.556 318.586Z" fill="white"/>
<path d="M207.972 326.759H214.671V328.195H206.38V315.129H214.31V316.564H207.972V320.783H213.607V322.218H207.972V326.759Z" fill="white"/>
<path d="M222.103 328.195H220.511V316.564H216.146V315.129H226.468V316.564H222.103V328.195Z" fill="white"/>
<path d="M239.456 328.195H238.724L235.433 320.392C234.977 319.318 234.522 318.149 234.066 316.886H233.988C234.079 318.703 234.124 320.366 234.124 321.877V328.195H232.533V315.129H234.828L237.904 322.521C238.255 323.368 238.643 324.386 239.066 325.578H239.115C239.583 324.256 239.971 323.237 240.277 322.521L243.353 315.129H245.648V328.195H244.056V321.877C244.056 320.399 244.102 318.735 244.193 316.886H244.115C243.633 318.221 243.177 319.39 242.747 320.392L239.456 328.195Z" fill="white"/>
<path d="M247.66 328.195L252.982 315.129H254.359L259.681 328.195H257.953L256.39 324.259H250.931L249.369 328.195H247.66ZM253.656 317.16C253.076 318.787 252.52 320.265 251.986 321.593L251.497 322.824H255.824L255.335 321.593C254.802 320.239 254.255 318.761 253.695 317.16H253.656Z" fill="white"/>
<path d="M268.402 322.414C269.203 323.566 269.994 324.751 270.775 325.968H270.833C270.749 324.699 270.706 323.403 270.706 322.082V315.129H272.298V328.195H270.716L265.589 320.91C264.704 319.64 263.913 318.455 263.216 317.355H263.158C263.242 318.547 263.285 319.937 263.285 321.525V328.195H261.693V315.129H263.275L268.402 322.414Z" fill="white"/>
<path d="M274.3 328.195L279.622 315.129H280.999L286.322 328.195H284.593L283.031 324.259H277.572L276.009 328.195H274.3ZM280.296 317.16C279.717 318.787 279.16 320.265 278.626 321.593L278.138 322.824H282.464L281.976 321.593C281.442 320.239 280.895 318.761 280.335 317.16H280.296Z" fill="white"/>
<path d="M296.683 322.912H293.705V321.476H298.275V327.795C298.138 327.866 297.936 327.941 297.669 328.019C297.409 328.091 297.109 328.159 296.771 328.224C296.432 328.289 296.068 328.341 295.677 328.381C295.293 328.42 294.912 328.439 294.535 328.439C293.415 328.439 292.425 328.286 291.566 327.98C290.713 327.674 289.997 327.241 289.417 326.681C288.838 326.121 288.399 325.441 288.099 324.64C287.8 323.84 287.65 322.948 287.65 321.965C287.65 320.897 287.822 319.927 288.167 319.054C288.519 318.182 289.011 317.437 289.642 316.818C290.28 316.2 291.039 315.724 291.917 315.392C292.803 315.054 293.776 314.884 294.837 314.884C295.124 314.884 295.41 314.897 295.697 314.924C295.983 314.943 296.257 314.976 296.517 315.021C296.777 315.06 297.018 315.109 297.24 315.168C297.461 315.226 297.647 315.288 297.796 315.353V316.759C297.406 316.629 296.956 316.522 296.449 316.437C295.941 316.346 295.433 316.3 294.925 316.3C294.183 316.3 293.473 316.414 292.796 316.642C292.126 316.864 291.533 317.202 291.019 317.658C290.505 318.114 290.094 318.687 289.789 319.377C289.483 320.06 289.33 320.864 289.33 321.789C289.33 322.694 289.453 323.475 289.701 324.132C289.955 324.79 290.309 325.334 290.765 325.763C291.227 326.193 291.784 326.512 292.435 326.72C293.093 326.922 293.822 327.023 294.622 327.023C294.994 327.023 295.358 327.004 295.716 326.965C296.081 326.925 296.403 326.87 296.683 326.799V322.912Z" fill="white"/>
<path d="M303.089 326.759H309.789V328.195H301.497V315.129H309.427V316.564H303.089V320.783H308.724V322.218H303.089V326.759Z" fill="white"/>
<path d="M319.456 328.195H318.724L315.433 320.392C314.977 319.318 314.522 318.149 314.066 316.886H313.988C314.079 318.703 314.124 320.366 314.124 321.877V328.195H312.533V315.129H314.828L317.904 322.521C318.255 323.368 318.643 324.386 319.066 325.578H319.115C319.583 324.256 319.971 323.237 320.277 322.521L323.353 315.129H325.648V328.195H324.056V321.877C324.056 320.399 324.102 318.735 324.193 316.886H324.115C323.633 318.221 323.177 319.39 322.747 320.392L319.456 328.195Z" fill="white"/>
<path d="M330.57 326.759H337.269V328.195H328.978V315.129H336.908V316.564H330.57V320.783H336.205V322.218H330.57V326.759Z" fill="white"/>
<path d="M346.722 322.414C347.523 323.566 348.314 324.751 349.095 325.968H349.154C349.069 324.699 349.027 323.403 349.027 322.082V315.129H350.619V328.195H349.037L343.91 320.91C343.024 319.64 342.233 318.455 341.537 317.355H341.478C341.563 318.547 341.605 319.937 341.605 321.525V328.195H340.013V315.129H341.595L346.722 322.414Z" fill="white"/>
<path d="M358.626 328.195H357.035V316.564H352.669V315.129H362.992V316.564H358.626V328.195Z" fill="white"/>
</svg>
